<?xml version="1.0" standalone="no"?>
<!DOCTYPE svg PUBLIC "-//W3C//DTD SVG 20010904//EN"
 "http://www.w3.org/TR/2001/REC-SVG-20010904/DTD/svg10.dtd">
<svg version="1.0" xmlns="http://www.w3.org/2000/svg"
 width="1921.000000pt" height="936.000000pt" viewBox="0 0 1921.000000 936.000000"
 preserveAspectRatio="xMidYMid meet">

<g transform="translate(0.000000,936.000000) scale(0.100000,-0.100000)"
fill="#000000" stroke="none">
<path d="M2302 9335 c-140 -31 -279 -120 -442 -284 -73 -74 -142 -155 -187
-222 -88 -129 -169 -207 -266 -253 -105 -49 -164 -61 -307 -60 -110 0 -143 5
-270 37 -80 20 -190 44 -245 52 -116 17 -355 20 -441 4 -112 -20 -134 -28
-134 -51 0 -17 4 -19 27 -14 16 3 73 13 128 22 181 29 448 5 680 -62 133 -38
328 -45 445 -15 152 38 285 123 358 228 104 150 160 221 229 293 129 135 282
239 408 276 73 22 251 24 340 5 198 -43 408 -148 638 -318 l87 -65 0 -49 c0
-27 7 -66 15 -87 22 -52 148 -176 290 -287 169 -131 184 -145 725 -664 1008
-968 1348 -1291 1432 -1362 l86 -72 -56 -81 c-126 -182 -167 -216 -263 -216
-71 0 -107 15 -243 102 -254 164 -476 235 -813 259 -270 20 -559 -10 -833 -85
-855 -234 -1410 -897 -1549 -1851 -80 -549 17 -1226 243 -1690 206 -423 512
-715 961 -918 341 -154 641 -221 990 -221 387 1 732 86 1134 281 165 80 174
81 238 42 17 -11 61 -59 97 -107 75 -100 113 -129 179 -138 l47 -7 2 874 3
874 37 17 c22 11 81 21 152 27 97 7 123 13 161 35 39 23 73 61 63 71 -2 2 -34
12 -72 24 -67 21 -83 21 -890 21 l-821 0 -62 -30 c-65 -30 -70 -38 -53 -70 19
-35 76 -43 352 -49 146 -3 270 -10 275 -14 13 -13 16 -861 4 -1028 -7 -91 -17
-165 -28 -191 -65 -166 -242 -332 -433 -406 -351 -137 -801 -61 -1102 185
-175 143 -339 424 -412 703 -30 115 -40 187 -65 485 -38 439 -45 592 -45 940
0 389 7 471 70 785 66 329 128 552 187 674 112 232 271 391 510 512 187 95
360 135 577 135 223 0 396 -42 593 -143 371 -191 632 -558 677 -951 30 -259
39 -299 76 -315 38 -18 44 -15 60 25 17 40 19 55 73 866 l38 568 -57 62 c-32
34 -135 148 -231 252 -298 327 -446 483 -1034 1090 -643 664 -652 673 -813
880 -64 83 -136 169 -160 192 -87 83 -204 124 -263 93 -16 -9 -32 -1 -96 48
-366 278 -721 398 -1001 337z m1269 -523 c83 -53 168 -169 154 -212 -8 -27
-17 -25 -87 12 -64 34 -109 80 -147 149 l-24 44 51 -49 c44 -43 53 -47 67 -36
14 12 10 19 -37 67 -58 59 -48 70 23 25z"/>
<path d="M10813 4974 c-384 -56 -748 -238 -842 -422 -50 -98 -63 -219 -37
-344 39 -182 149 -291 346 -345 51 -13 106 -17 256 -18 l191 0 62 29 c33 16
61 33 61 37 0 4 -47 33 -105 64 -119 66 -164 108 -193 187 -63 168 -13 422
107 545 82 86 229 133 411 133 238 0 402 -75 478 -218 29 -55 31 -67 41 -227
11 -178 41 -772 41 -816 l0 -25 -292 -33 c-641 -71 -907 -143 -1174 -316 -350
-227 -493 -601 -368 -968 68 -201 221 -359 431 -444 145 -59 261 -84 418 -90
161 -6 267 8 417 57 193 62 346 160 507 326 56 57 105 104 110 104 4 0 13 -12
20 -28 27 -59 105 -164 171 -230 94 -96 199 -162 318 -202 85 -29 110 -33 207
-34 128 -1 203 16 314 71 176 86 301 281 301 469 0 56 -19 148 -35 174 -11 17
-75 -101 -130 -238 -69 -172 -114 -230 -193 -252 -81 -21 -167 40 -191 135 -8
30 -11 334 -11 992 0 559 -4 992 -10 1054 -16 171 -59 314 -131 437 -43 73
-178 207 -251 250 -167 99 -377 157 -683 192 -125 14 -451 11 -562 -6z m774
-1619 c22 -7 22 -8 25 -274 4 -386 -6 -654 -27 -716 -55 -161 -250 -344 -450
-421 -93 -36 -225 -39 -296 -7 -110 49 -165 136 -200 315 -42 217 -33 440 26
627 78 247 303 427 603 481 52 10 284 6 319 -5z"/>
<path d="M14597 4975 c-400 -50 -660 -166 -888 -394 -159 -159 -255 -318 -333
-552 -143 -427 -138 -1003 11 -1434 74 -212 173 -375 318 -520 180 -181 392
-289 680 -348 95 -19 141 -22 330 -21 188 0 235 3 321 22 270 58 442 147 604
311 147 150 227 316 256 533 15 118 13 127 -29 128 -33 0 -87 -29 -96 -52 -4
-13 -16 -61 -25 -107 -33 -165 -108 -304 -225 -422 -177 -176 -415 -269 -688
-269 -326 0 -522 152 -603 469 -53 207 -73 601 -67 1291 4 571 2 549 78 774
49 147 84 210 166 296 68 73 165 132 257 156 67 18 215 17 294 -1 172 -41 281
-123 352 -268 54 -109 73 -204 67 -332 -8 -177 -56 -259 -197 -335 -81 -44
-82 -44 -61 -62 32 -25 121 -56 197 -68 174 -28 389 47 503 176 147 167 167
421 47 608 -107 167 -419 346 -716 411 -104 22 -412 28 -553 10z"/>
<path d="M8625 4963 c-191 -40 -370 -157 -497 -324 -49 -64 -183 -269 -191
-292 -1 -5 -10 -5 -20 -2 -15 6 -17 33 -19 284 l-3 276 -60 12 c-156 32 -712
34 -963 3 -116 -14 -224 -41 -229 -57 -3 -6 15 -24 38 -40 41 -27 48 -28 203
-33 103 -3 169 -10 184 -18 l22 -13 0 -1424 0 -1425 -91 0 c-90 0 -293 -25
-336 -41 -18 -6 -23 -16 -23 -41 0 -32 3 -34 68 -58 l67 -25 775 0 775 0 83
29 c45 16 82 33 82 38 0 10 -66 51 -110 68 -19 7 -107 16 -195 20 -112 5 -172
13 -201 24 l-41 17 -7 76 c-10 118 -7 1560 4 1723 16 247 78 444 212 669 86
145 211 272 322 327 70 34 87 38 150 38 86 0 137 -23 190 -85 47 -55 70 -120
91 -254 51 -321 -3 -498 -189 -617 l-48 -31 27 -15 c107 -56 273 -76 385 -48
113 28 207 81 285 160 39 39 82 94 98 123 69 130 90 336 48 488 -34 122 -74
189 -171 285 -99 99 -184 147 -320 180 -103 24 -289 26 -395 3z"/>
<path d="M17669 4960 c-484 -38 -779 -181 -1005 -486 -327 -440 -407 -1261
-187 -1899 176 -510 588 -804 1225 -874 445 -49 900 82 1150 332 158 158 263
392 256 573 -3 71 -5 80 -27 90 -22 11 -27 8 -62 -32 -23 -27 -41 -59 -44 -82
-32 -187 -99 -316 -231 -443 -87 -83 -142 -120 -259 -175 -176 -83 -412 -124
-603 -105 -179 19 -284 65 -382 167 -148 153 -195 359 -246 1067 -16 221 -16
240 -1 272 l17 35 965 0 965 0 0 63 c0 129 -21 444 -35 542 -22 146 -58 263
-120 390 -155 318 -420 493 -831 549 -139 19 -406 27 -545 16z m384 -149 c117
-46 201 -142 238 -277 10 -36 27 -138 38 -227 20 -157 61 -630 61 -702 l0 -35
-576 0 -577 0 6 218 c6 226 21 351 62 513 79 316 193 470 386 524 83 23 286
15 362 -14z"/>
<path d="M7313 680 c-88 -18 -158 -77 -202 -169 -23 -50 -26 -68 -26 -171 0
-129 17 -185 78 -249 81 -86 224 -108 332 -51 69 36 73 37 81 5 14 -55 24 -19
24 85 0 87 -3 110 -14 110 -9 0 -16 -17 -20 -49 -8 -64 -41 -111 -96 -138 -74
-38 -171 -23 -221 33 -94 107 -102 385 -15 503 41 55 73 71 141 71 103 0 176
-60 191 -156 4 -28 11 -44 20 -44 11 0 14 22 14 105 0 100 -10 134 -24 80 -8
-31 -17 -31 -64 0 -31 20 -127 48 -151 44 -3 -1 -25 -5 -48 -9z"/>
<path d="M12193 680 c-58 -12 -91 -31 -141 -81 -65 -66 -87 -131 -87 -264 0
-124 15 -170 75 -239 48 -54 102 -78 186 -84 133 -8 227 47 282 166 21 46 27
76 30 154 8 195 -67 312 -221 345 -69 14 -66 14 -124 3z m125 -34 c88 -46 143
-194 128 -347 -15 -164 -89 -269 -189 -269 -105 0 -175 87 -198 244 -19 138
19 285 92 351 34 30 46 35 90 35 27 0 62 -6 77 -14z"/>
<path d="M9881 523 c-34 -87 -87 -222 -118 -301 -42 -110 -62 -148 -84 -164
-16 -12 -29 -25 -29 -30 0 -4 41 -8 90 -8 53 0 90 4 90 10 0 6 -8 10 -18 10
-29 0 -62 29 -62 55 0 13 12 56 26 94 l26 71 113 0 113 0 32 -90 c18 -49 30
-96 27 -104 -4 -9 -18 -18 -32 -22 -55 -14 -19 -24 85 -24 61 0 110 3 110 8 0
4 -13 14 -28 23 -24 14 -43 56 -141 310 -63 162 -119 300 -126 307 -10 11 -24
-17 -74 -145z m84 -98 c25 -66 45 -123 45 -127 0 -5 -43 -8 -95 -8 -52 0 -95
3 -95 7 0 11 93 253 96 250 2 -2 24 -57 49 -122z"/>
<path d="M13940 662 c-50 -25 -80 -75 -80 -133 0 -94 22 -124 163 -215 109
-72 137 -106 137 -173 0 -36 -6 -49 -34 -77 -28 -28 -42 -34 -76 -34 -89 0
-140 49 -162 154 -7 31 -17 55 -23 53 -14 -5 -19 -207 -5 -221 8 -8 12 -4 16
12 8 27 19 28 69 2 27 -14 59 -20 104 -20 125 0 195 61 196 170 0 85 -30 123
-170 214 -116 77 -145 109 -145 161 0 68 56 112 131 102 57 -8 96 -48 116
-119 9 -32 20 -58 24 -58 8 0 18 180 11 194 -3 5 -13 -2 -23 -15 l-17 -23 -45
22 c-55 27 -137 29 -187 4z"/>
<path d="M7980 662 c0 -4 15 -12 33 -17 l32 -10 0 -290 0 -290 -32 -10 c-61
-17 -34 -25 87 -25 114 0 155 11 90 24 -42 8 -50 36 -50 172 l0 114 49 0 c100
0 116 -17 151 -174 27 -120 47 -146 113 -146 34 0 49 6 70 28 32 34 25 50 -10
22 -43 -34 -57 -15 -88 116 -21 92 -44 129 -89 144 l-36 12 52 26 c59 31 86
62 98 116 18 81 -29 156 -114 181 -53 16 -356 22 -356 7z m310 -30 c43 -21 70
-72 70 -132 0 -97 -57 -150 -162 -150 l-58 0 0 128 c0 153 8 172 73 172 23 0
58 -8 77 -18z"/>
<path d="M8860 660 c0 -5 9 -10 19 -10 49 0 51 -13 51 -303 0 -150 -4 -277 -8
-284 -4 -6 -20 -15 -35 -18 -70 -18 -9 -25 211 -25 l237 0 -3 95 c-4 118 -19
128 -36 24 -10 -58 -45 -86 -120 -94 -69 -7 -137 1 -148 19 -4 6 -8 71 -8 144
l0 132 34 0 c70 0 99 -27 108 -100 2 -14 8 -24 13 -22 15 3 13 262 -1 262 -6
0 -14 -18 -18 -40 -9 -57 -36 -80 -91 -80 l-45 0 0 129 c0 166 -1 165 123 159
82 -4 92 -7 112 -30 12 -14 26 -47 29 -72 10 -67 26 -56 26 17 0 34 3 72 6 85
l6 22 -231 0 c-147 0 -231 -4 -231 -10z"/>
<path d="M10500 575 c0 -74 3 -95 14 -95 8 0 16 17 19 45 13 92 51 125 145
125 l32 0 0 -289 c0 -314 2 -305 -58 -317 -70 -14 -25 -24 108 -24 142 0 174
8 98 26 -33 7 -44 15 -49 34 -4 14 -7 148 -8 299 l-1 274 61 -6 c79 -7 105
-30 120 -109 6 -32 16 -58 20 -58 5 0 9 26 9 58 0 31 3 74 6 95 l7 37 -262 0
-261 0 0 -95z"/>
<path d="M11360 661 c0 -5 12 -11 27 -13 48 -5 53 -30 53 -300 0 -138 -4 -258
-10 -273 -6 -17 -20 -27 -40 -31 -65 -13 -24 -24 90 -24 121 0 148 8 88 25
l-33 10 0 290 0 290 33 10 c60 17 33 25 -88 25 -68 0 -120 -4 -120 -9z"/>
<path d="M12900 660 c0 -5 11 -10 24 -10 52 0 56 -22 56 -297 0 -138 -4 -263
-9 -276 -6 -16 -21 -28 -40 -32 -60 -13 -30 -25 64 -25 96 0 125 12 60 24 -26
5 -39 14 -46 33 -5 14 -8 130 -7 274 l3 249 169 -263 c197 -306 214 -329 227
-322 5 4 9 130 9 304 0 276 1 299 18 314 10 10 26 17 35 17 9 0 17 5 17 10 0
6 -37 10 -90 10 -53 0 -90 -4 -90 -10 0 -5 9 -10 19 -10 10 0 28 -8 40 -17 21
-18 22 -24 19 -230 l-3 -212 -155 239 -155 240 -82 0 c-49 0 -83 -4 -83 -10z"/>
</g>
</svg>
